# xmcd
#
# Track frame offsets:
#	150
#	19493
#	38320
#	59872
#	80662
#	104470
#	128657
#	147385
#	164096
#	182994
#
# Disc length: 2683 seconds
#
# Revision: 0
# Processed by: cddbd v1.5.2PL0 Copyright (c) Steve Scherf et al.
# Submitted via: audiograbber 1.83.01
#
DISCID=930a790a
DTITLE=Richie Kotzen - Into The Black
DYEAR=2005
DGENRE=
TTITLE0=You Can't Save Me
TTITLE1=Misunderstood
TTITLE2=Fear
TTITLE3=The Shadow
TTITLE4=Doin' What The Devil Says To Do
TTITLE5=Till You Put Me Down
TTITLE6=Sacred Ground
TTITLE7=Your Lies
TTITLE8=Livin' In Bliss
TTITLE9=My Angel
EXTD=
EXTT0=
EXTT1=
EXTT2=
EXTT3=
EXTT4=
EXTT5=
EXTT6=
EXTT7=
EXTT8=
EXTT9=
PLAYORDER=
